<svg version="1" id="Layer_1" xmlns="http://www.w3.org/2000/svg" xmlns:xlink="http://www.w3.org/1999/xlink" x="0px" y="0px"
	 viewBox="0 0 3251 1891" preserveAspectRatio="xMinYMin meet" xml:space="preserve">
<g id="XMLID_1_">
	<path id="XMLID_2_" class="st0" d="M3233,494h-303l-307,355V18h-246v813c-44-192-216-337-421-337
		c-218,0-398,162-428,371V494h-245l0,60v17c-8-6-17-12-26-17c-65-39-142-62-223-62
		c-39,0-77,5-113,15c-68,17-131,49-182,95c-7,6-13,12-19,18c-37,37-66,79-86,124
		c-11,24-20,49-27,75c-6,25-10,50-12,76v-95v-307H350v946c0,103-84,187-187,187
		c-33-0-73-2-73-2s0-1-72,216c60,24,145,30,145,30c222-0,406-169,429-383
		c4-41,3-205,3-205v-237v-92c2,26,6,52,12,76c26,101,88,188,171,247
		c49,36,105,60,167,72c27,5,55,8,84,8c2,0,4-0,7-0c2,0,4,0,7-0c0,0,1,0,1,0
		c79-2,152-24,215-62c9-5,17-11,26-17v28h0l0,50v1l245,0v-371c30,209,210,371,428,371
		c196,0,375-134,421-334h-235c-44,78-113,114-188,114c-117,0-213-95-213-213
		c0-117,95-213,213-213c83,0,155,48,190,117h234v528h246V928h3l294,430H3231l-350-465
		L3233,494z M1034,1140c-117,0-212-95-212-212c0-117,95-212,212-212s212,95,212,212
		S1152,1140,1034,1140z"/>
	<path id="XMLID_5_" class="st0" d="M474,357c35,0,66-12,89-35c23-23,35-54,35-89
		c0-33-12-63-36-87c-24-24-54-37-89-37c-34,0-65,13-89,37c-23,24-36,54-36,87
		c0,35,12,66,35,89C409,345,439,357,474,357z"/>
</g>
</svg>
